<svg xmlns="http://www.w3.org/2000/svg" viewBox="0 0 1000 571" role="img" aria-label="Double Digital"><defs></defs><path fill-rule="evenodd" fill="#EFEDE6" d="M928.5,87.9 914.9,74.8 904.1,65.7 896.2,59.6 888.7,54.3 877.5,47.0 861.9,38.3 845.0,30.1 832.3,24.8 820.7,20.5 806.3,15.7 790.4,11.1 775.5,7.5 767.8,6.0 751.4,3.5 732.9,1.7 719.2,0.8 689.8,0.0 664.8,0.0 627.6,0.8 619.5,1.5 598.4,2.3 437.3,2.3 437.3,13.4 525.4,13.6 525.4,557.0 437.2,557.2 437.2,568.1 582.1,568.1 606.1,568.8 649.6,571.0 664.0,571.3 698.1,571.3 720.8,570.8 741.3,569.8 759.2,568.1 772.5,566.3 789.2,563.0 799.6,560.4 810.9,556.9 826.6,550.9 844.3,543.1 854.9,538.0 873.5,527.6 888.1,518.0 904.8,505.2 918.5,493.0 928.5,482.9 936.4,473.9 944.5,463.8 952.1,453.4 958.9,443.0 965.7,431.2 971.7,419.4 977.6,406.0 982.8,392.6 987.1,379.5 989.7,370.3 993.2,355.4 996.0,339.5 997.7,326.5 999.0,311.3 999.7,297.1 999.8,284.8 999.3,266.1 998.5,254.2 996.9,238.6 994.5,223.5 991.2,207.3 988.2,195.4 983.6,180.2 979.5,168.7 973.2,154.0 967.7,142.9 961.1,131.0 951.6,116.2 944.9,107.0 936.7,97.0ZM604.9,13.2 638.4,11.6 662.5,10.9 690.0,11.3 712.7,12.9 734.9,16.1 755.6,20.7 774.3,26.7 791.0,33.8 799.8,38.3 808.7,43.4 817.2,48.8 824.3,54.0 830.8,59.1 838.7,66.2 845.8,73.4 852.3,80.6 858.9,89.1 866.2,99.7 875.5,115.7 880.8,126.7 885.2,137.3 891.5,155.3 895.5,169.6 898.3,181.8 901.3,197.4 904.1,215.9 906.3,235.5 907.4,250.5 908.3,267.9 908.6,287.8 908.4,302.0 907.4,323.7 906.3,338.0 904.5,353.7 901.8,370.8 899.3,383.5 896.7,394.9 892.7,409.0 888.4,421.8 883.8,433.7 878.0,446.8 871.2,460.3 863.4,474.3 859.2,480.9 852.1,491.1 843.4,502.1 840.4,505.4 828.9,516.5 817.9,525.3 809.1,531.2 797.3,538.0 788.4,542.3 779.9,545.8 767.7,549.9 752.4,553.9 735.6,556.9 715.8,558.9 695.6,560.0 684.9,560.4 646.0,560.0 620.3,558.7 604.7,557.0ZM490.5,87.1 477.9,75.0 460.8,60.9 443.8,49.2 425.1,38.4 404.9,28.8 382.7,20.2 356.2,11.9 344.8,8.9 330.7,6.0 314.3,3.5 295.4,1.7 278.2,0.7 250.7,0.0 225.7,0.0 208.6,0.7 190.4,0.8 182.3,1.5 161.0,2.3 0.2,2.3 0.2,13.4 88.3,13.6 88.3,557.0 0.0,557.2 0.0,568.1 147.0,568.1 169.4,568.8 212.5,571.0 226.9,571.3 260.8,571.3 284.2,570.8 301.2,570.0 319.1,568.5 333.2,566.7 350.6,563.3 369.1,558.4 388.6,551.3 412.5,540.7 430.2,531.2 441.3,524.4 450.4,518.3 467.6,505.2 481.2,493.1 491.5,482.7 499.3,473.9 506.9,464.5 514.7,453.7 514.7,116.6 503.1,101.2ZM167.7,13.2 204.0,11.4 228.5,10.9 253.4,11.3 278.9,13.2 290.9,14.9 302.9,17.1 323.1,22.0 331.0,24.5 342.6,28.8 359.8,36.8 375.1,45.5 382.2,50.3 392.6,58.3 401.2,65.9 408.2,72.9 419.3,85.8 429.0,99.7 438.3,115.7 444.3,128.2 448.1,137.3 454.9,157.0 458.4,169.6 461.3,182.6 464.1,197.4 467.0,215.9 469.1,235.5 470.3,250.5 471.1,267.9 471.4,287.8 471.3,302.0 470.3,323.7 469.1,338.0 467.3,353.7 464.6,370.8 462.2,383.5 459.5,394.9 455.5,409.0 451.2,421.8 446.6,433.7 439.5,449.6 434.0,460.3 426.2,474.3 419.1,485.3 413.0,493.8 404.9,503.6 394.9,513.7 388.6,519.1 380.7,525.3 370.1,532.4 360.8,537.7 352.4,541.8 342.8,545.8 330.0,550.1 314.6,554.1 298.6,556.9 282.7,558.5 262.8,559.9 246.6,560.4 204.0,559.9 180.8,558.5 167.6,557.0Z"/></svg>